inDegrees=yes
name=ik_S49_A02_T01
DataType=double
version=3
OpenSimVersion=4.3-2021-08-27-4bc7ad9
endheader
time	pelvis_tilt	pelvis_list	pelvis_rotation	pelvis_tx	pelvis_ty	pelvis_tz	hip_flexion_r	hip_adduction_r	hip_rotation_r	knee_angle_r	knee_angle_r_beta	ankle_angle_r	subtalar_angle_r	mtp_angle_r	hip_flexion_l	hip_adduction_l	hip_rotation_l	knee_angle_l	knee_angle_l_beta	ankle_angle_l	subtalar_angle_l	mtp_angle_l	lumbar_extension	lumbar_bending	lumbar_rotation	arm_flex_r	arm_add_r	arm_rot_r	elbow_flex_r	pro_sup_r	wrist_flex_r	wrist_dev_r	arm_flex_l	arm_add_l	arm_rot_l	elbow_flex_l	pro_sup_l	wrist_flex_l	wrist_dev_l
0	0	0	0	0	0.9399999999999999	0	0	0	0	0	0	0	0	0	0	0	0	0	0	0	0	0	0	0	0	0	0	0	0	89.99999999963507	0	0	0	0	0	0	89.99999999869995	0	0
0.02	0.6867974853505188	3.710023537572408	95.20330508763118	0	0.9399999999999999	0	-6.032057283871802	6.953117553600422	-1.328348163023535	-2.094425790280776	-0.03655462597908379	0	0	0	-3.957786816694578	-1.972924340527576	-3.519420883734438	3.531309996997276	0.06163298635619354	0	0	0	0	0	0	1.947737541886369	-1.947737541886365	0.3465516174134472	9.578828566740414	89.65344840258017	0	0	1.947737541886369	-1.947737541886365	0.3465516174134472	9.578828566740414	89.65344840170999	0	0
0.04	0.6480567833454267	3.734683978275927	95.22006175059788	0	0.9399999999999999	0	-6.030526169765833	6.890668524592876	-1.321908900299364	-2.105565175963889	-0.03674904493590363	0	0	0	-3.943701034423257	-1.902296124830068	-3.484222714327121	3.535941877848542	0.0617138279276082	0	0	0	0	0	0	2.473555089917721	-2.473555089917718	0.4444168773420719	11.45219196549015	89.55558314842109	0	0	2.473555089917721	-2.473555089917718	0.4444168773420719	11.45219196549015	89.55558314756927	0	0
0.06	0.6498432655801398	3.724566916607991	95.22687804606186	0	0.9399999999999999	0	-5.935032278045059	6.834123245281932	-1.297860488443529	-2.000304997641436	-0.03491190825294046	0	0	0	-3.920580765435028	-1.899401330222734	-3.475814830042016	3.566481777058991	0.06224684972205776	0	0	0	0	0	0	2.859977964698392	-2.859977964698389	0.5161218177408878	12.78227320087949	89.48387821224703	0	0	2.859977964698392	-2.859977964698389	0.5161218177408878	12.78227320087949	89.48387821140864	0	0
0.08	0.6584603323052987	3.73247719508438	95.2081344108863	0	0.9399999999999999	0	-5.928147766468146	6.835182778726536	-1.277207988984708	-2.006738025744037	-0.03502418577420418	0	0	0	-3.857711133670402	-1.909010836205681	-3.542019830649948	3.644550526101987	0.0636094064357712	0	0	0	0	0	0	3.290479252761978	-3.290479252761973	0.5953856664473914	14.26882983332452	89.40461436820183	0	0	3.290479252761978	-3.290479252761973	0.5953856664473914	14.26882983332452	89.40461436737826	0	0
0.1	0.6531344011462528	3.728315799702441	95.20535579444946	0	0.9399999999999999	0	-5.849761760174315	6.823667398526008	-1.264954903271043	-1.737081143411974	-0.03031778532684674	0	0	0	-3.749524952563317	-1.889189262975354	-3.494246421608361	3.883924100535226	0.06778726345189895	0	0	0	0	0	0	3.778221532666674	-3.77822153266667	0.6847992119379708	16.00994119079084	89.31520082796469	0	0	3.778221532666674	-3.77822153266667	0.6847992119379708	16.00994119079084	89.31520082715794	0	0
0.12	0.6275154368489011	3.752168060002913	95.22541283412859	0	0.9399999999999999	0	-5.907108540529386	6.762533605508141	-1.338855975527062	-1.947904932868684	-0.03399735459439766	0	0	0	-3.763611141418015	-1.823336056979881	-3.435665546405532	3.75994614933514	0.0656234400035806	0	0	0	0	0	0	3.892555240319711	-3.892555240319707	0.7055975944637756	16.34791572361548	89.29440244665835	0	0	3.892555240319711	-3.892555240319707	0.7055975944637756	16.34791572361548	89.29440244585552	0	0
0.14	0.6395681300874584	3.764157672386294	95.19750598028118	0	0.9399999999999999	0	-5.910678151566159	6.718594546732414	-1.46188974842989	-1.938811909901839	-0.03383865140466675	0	0	0	-3.704124088998524	-1.853478435230779	-3.50279162330977	3.768247851508678	0.06576833204002881	0	0	0	0	0	0	3.893787491472867	-3.893787491472863	0.7058306937348831	16.35540063660401	89.29416934740107	0	0	3.893787491472867	-3.893787491472863	0.7058306937348831	16.35540063660401	89.2941693465983	0	0
0.16	0.6449939323763347	3.695071041056172	95.21397996177596	0	0.9399999999999999	0	-5.727466851948246	6.668637943362795	-1.650303628689156	-1.743952198938172	-0.03043770786886626	0	0	0	-3.536448519555599	-1.875969824420824	-3.508894822937644	3.986382414254682	0.06957549837234472	0	0	0	0	0	0	3.902275445288138	-3.902275445288133	0.7074547116239548	16.40919225313555	89.2925453296086	0	0	3.902275445288138	-3.902275445288133	0.7074547116239548	16.40919225313555	89.29254532880611	0	0
0.18	0.640334693025003	3.688036322040507	95.21379329306694	0	0.9399999999999999	0	-5.618474717065112	6.596469628914196	-1.771609175176641	-1.541982230415589	-0.02691266692799788	0	0	0	-3.379511105448165	-1.877528568748441	-3.54531060438739	4.161384931395135	0.07262986849572346	0	0	0	0	0	0	3.907588317442598	-3.907588317442593	0.7084676987287952	16.44239183143528	89.29153234256395	0	0	3.907588317442598	-3.907588317442593	0.7084676987287952	16.44239183143528	89.29153234176164	0	0
0.2	0.6811857219961831	3.62379740879233	95.17966794377182	0	0.9399999999999999	0	-5.094754894774517	6.447325259519187	-1.774876106165245	-1.033058794113344	-0.01803027732396007	0	0	0	-3.148681997952041	-1.904370902578771	-3.496707882284919	4.354105349062912	0.07599347431984481	0	0	0	0	0	0	3.913574342492733	-3.913574342492726	0.7096106606047248	16.47995484032935	89.29038938075595	0	0	3.913574342492733	-3.913574342492726	0.7096106606047248	16.47995484032935	89.29038937995385	0	0
0.22	0.6859099964136089	3.631774095229526	95.17582875727311	0	0.9399999999999999	0	-4.855910082508097	6.297343170140055	-1.963192162714256	-0.5924089613990773	-0.01033948689473389	0	0	0	-3.022362753928855	-1.905554539041941	-3.425985283309309	4.53620904825758	0.07917178345085311	0	0	0	0	0	0	3.920537287660426	-3.920537287660419	0.7109431501387818	16.5239467438846	89.28905689130116	0	0	3.920537287660426	-3.920537287660419	0.7109431501387818	16.5239467438846	89.2890568904993	0	0
0.24	0.7435482393289419	3.615381910850502	95.11452428294379	0	0.9399999999999999	0	-4.86179705854688	6.323979382370279	-1.939265178172538	-0.4194720160781466	-0.00732116780054225	0	0	0	-2.862016384383781	-1.942724717419003	-3.499258133081613	4.733641344930136	0.08261762707756345	0	0	0	0	0	0	4.045059185655959	-4.045059185655951	0.7339624110728155	17.02134940393653	89.26603763172305	0	0	4.045059185655959	-4.045059185655951	0.7339624110728155	17.02134940393653	89.26603763092552	0	0
0.26	0.8030787737501917	3.585953911164913	95.06521538949657	0	0.9399999999999999	0	-4.603494964175819	6.182360430511532	-2.171417850379072	-0.06539103442103443	-0.001141288851931995	0	0	0	-2.708769890483365	-1.955324705127748	-3.502643320302651	4.811852241298454	0.08398266473012669	0	0	0	0	0	0	4.051424898290924	-4.05142489829092	0.7351782774485229	17.0607352128975	89.26482176541957	0	0	4.051424898290924	-4.05142489829092	0.7351782774485229	17.0607352128975	89.2648217646223	0	0
0.28	0.8452396938475254	3.557692744157942	94.99450495021323	0	0.9399999999999999	0	-4.008243698550106	6.057829501447503	-2.468130855939938	0.6814818524376397	0.01189410211762696	0	0	0	-2.559054496338013	-1.950333669791846	-3.497124904919687	4.91618483086136	0.08580361193513127	0	0	0	0	0	0	4.060219743283907	-4.060219743283904	0.7368583462628404	17.11509683558262	89.26314169670505	0	0	4.060219743283907	-4.060219743283904	0.7368583462628404	17.11509683558262	89.2631416959082	0	0
0.3	0.8603074980515423	3.479017662251651	94.92614195015055	0	0.9399999999999999	0	-3.936939998567842	6.043202115610314	-2.40806163422836	0.7957860160828086	0.01388908612197356	0	0	0	-2.47580203349876	-1.936689232066976	-3.538535689627827	4.924619674765813	0.08595082773315574	0	0	0	0	0	0	4.231444562091778	-4.231444562091775	0.7683563961018332	17.77400356705113	89.23164364871899	0	0	4.231444562091778	-4.231444562091775	0.7683563961018332	17.77400356705113	89.23164364792805	0	0
0.32	0.8520288143585832	3.39814189601033	94.87913212073914	0	0.9399999999999999	0	-3.571315597699217	5.99112643602373	-2.59952150454971	1.148001138410244	0.0200363996819019	0	0	0	-2.167911456332195	-1.774410648835665	-3.191202350662333	4.93466303269451	0.08612611739696778	0	0	0	0	0	0	4.238171191790131	-4.238171191790127	0.7696387062125559	17.81455589466906	89.23036133868447	0	0	4.238171191790131	-4.238171191790127	0.7696387062125559	17.81455589466906	89.23036133789373	0	0
0.34	0.863889466117572	3.25749768562263	94.81898134334975	0	0.9399999999999999	0	-3.175083002455027	5.859223571337102	-2.918376046539714	1.649321731589972	0.02878609464093917	0	0	0	-1.926366180266652	-1.699030618616468	-3.080386194008091	4.973044582324081	0.08679600181002142	0	0	0	0	0	0	4.246095621603035	-4.246095621603031	0.7711490765110841	17.86222415181322	89.22885096847558	0	0	4.246095621603035	-4.246095621603031	0.7711490765110841	17.86222415181322	89.22885096768519	0	0
0.36	0.8661123942970165	3.204852824823448	94.78615063134764	0	0.9399999999999999	0	-2.814443435232197	5.752157227659601	-3.133801170597593	2.048723765419022	0.03575697517041788	0	0	0	-1.80077071194012	-1.581556203320865	-3.005403115794024	4.944541584314292	0.0862985306480612	0	0	0	0	0	0	4.253737852165425	-4.253737852165421	0.7726053562348635	17.9081098560386	89.22739468883827	0	0	4.253737852165425	-4.253737852165421	0.7726053562348635	17.9081098560386	89.22739468804821	0	0
